<svg xmlns="http://www.w3.org/2000/svg" xmlns:xlink="http://www.w3.org/1999/xlink" version="1.1" x="0px" y="0px" viewBox="0 0 100 125" enable-background="new 0 0 100 100" xml:space="preserve"><g><path fill="none" d="M24.213,52.215c-0.005-0.002-0.009-0.004-0.014-0.006c-0.705,0.694-1.488,1.245-2.323,1.576   c-0.567,0.224-1.159,0.35-1.767,0.35s-1.199-0.126-1.766-0.35c-0.844-0.335-1.633-0.892-2.344-1.596h0   c0,0.866-0.661,1.359-1.111,1.596c-0.053,0.027-0.104,0.052-0.15,0.072c-0.112,0.052-0.197,0.082-0.234,0.094c0,0,0,0,0,0.001   c0.026,0.222,0.125,0.437,0.283,0.639c0.742,0.95,2.83,2.321,5.291,2.321c2.459,0,4.547-1.371,5.29-2.321   c0.159-0.202,0.257-0.417,0.284-0.639c0.001-0.006,0.001-0.013,0.002-0.02C25.35,53.82,24.23,53.331,24.213,52.215z"/><path fill="none" d="M26.654,43.996c-0.022-0.01-0.046-0.018-0.07-0.022l-0.701,0.676l-8.64-4.447   c-2.823-0.261-3.272,3.511-3.306,3.848c-0.002,0.016-0.003,0.024-0.003,0.024c-0.1-0.081-0.202-0.119-0.3-0.102   c-0.042,0.008-0.083,0.025-0.12,0.052c-0.272,0.196-0.383,0.881-0.244,1.655c0.105,0.589,0.328,1.08,0.57,1.322   c0.12,0.12,0.245,0.18,0.364,0.159c0.058-0.01,0.11-0.039,0.157-0.083c0.573,1.785,1.67,3.564,3.052,4.639   c0.815,0.633,1.73,1.021,2.696,1.021c0.961,0,1.87-0.383,2.681-1.009c1.391-1.074,2.493-2.859,3.069-4.651   c0.047,0.044,0.099,0.072,0.157,0.083c0.101,0.017,0.208-0.023,0.313-0.111c0.261-0.222,0.507-0.741,0.619-1.37   C27.095,44.86,26.963,44.141,26.654,43.996z"/><path fill="none" d="M72.869,46.256c0.124,0.125,0.254,0.187,0.377,0.165c0.061-0.01,0.114-0.039,0.164-0.084   c0.6,1.869,1.752,3.732,3.205,4.845c0.838,0.641,1.774,1.032,2.764,1.032c1.011,0,1.968-0.41,2.819-1.076   c1.427-1.116,2.558-2.956,3.15-4.801c0.049,0.045,0.103,0.075,0.163,0.084c0.105,0.019,0.217-0.024,0.325-0.116   c0.271-0.23,0.527-0.768,0.644-1.421c0.152-0.852,0.016-1.599-0.306-1.749c-0.022-0.011-0.047-0.019-0.072-0.023   c-0.099-0.017-0.203,0.02-0.305,0.099l-0.005,0.006c0-0.001-0.001-0.001-0.001-0.001c-0.001,0-0.002,0.001-0.003,0.002   c-0.001-0.006-0.001-0.012-0.001-0.018c-0.385-1.461-0.87-2.356-1.37-2.889c-0.098-0.053-0.198-0.1-0.31-0.131   c-0.013,0.216,0.232,0.543,0.259,0.862c-0.694-0.323-1.358-0.827-2.327-0.862c-0.228-0.008-0.473-0.006-0.724-0.001   c-2.34,0.836-4.912-0.109-4.912-0.109c-2.933-0.272-3.398,2.775-3.434,3.124c-0.002,0.009-0.002,0.017-0.003,0.025l0,0   c-0.105-0.083-0.211-0.123-0.313-0.105c-0.045,0.008-0.087,0.026-0.125,0.055c-0.092,0.065-0.163,0.188-0.216,0.346   c-0.03,0.41-0.048,0.824-0.054,1.253c0.006,0.04,0.009,0.078,0.017,0.119C72.388,45.495,72.617,46.004,72.869,46.256z"/><path fill="none" d="M57.881,42.281c-0.028-0.014-0.059-0.024-0.091-0.029l-0.9,0.869l-11.107-5.717   c-0.121-0.011-0.24-0.017-0.354-0.017c-3.314,0-3.854,4.546-3.897,4.964c-0.003,0.021-0.004,0.031-0.004,0.031   c-0.108-0.087-0.219-0.136-0.327-0.136c-0.02,0-0.04,0.002-0.06,0.005c-0.055,0.009-0.107,0.033-0.154,0.066   c-0.351,0.253-0.493,1.132-0.314,2.128c0.135,0.757,0.421,1.389,0.732,1.7c0.134,0.134,0.272,0.209,0.407,0.209   c0.021,0,0.041-0.002,0.062-0.005c0.073-0.013,0.141-0.05,0.202-0.105c0.737,2.295,2.146,4.582,3.924,5.963   c1.047,0.814,2.224,1.313,3.467,1.313c1.235,0,2.404-0.493,3.447-1.298c1.787-1.38,3.204-3.675,3.945-5.979   c0.061,0.056,0.127,0.093,0.202,0.105c0.02,0.003,0.04,0.005,0.061,0.005c0.111,0,0.228-0.052,0.342-0.148   c0.335-0.286,0.652-0.953,0.795-1.761C58.448,43.392,58.278,42.467,57.881,42.281z"/><path fill="none" d="M54.743,52.849c-0.007-0.003-0.013-0.006-0.019-0.009c-0.906,0.894-1.913,1.6-2.987,2.026   c-0.729,0.288-1.489,0.449-2.271,0.449s-1.542-0.161-2.271-0.449c-1.085-0.43-2.101-1.146-3.013-2.051c-0.001,0-0.001,0-0.001,0   c0,1.113-0.851,1.748-1.428,2.051c-0.068,0.035-0.134,0.066-0.193,0.094c-0.144,0.065-0.253,0.104-0.301,0.12c0,0,0,0,0,0.001   c0.035,0.285,0.161,0.562,0.364,0.821c0.955,1.221,3.639,2.984,6.802,2.984c3.162,0,5.847-1.764,6.801-2.984   c0.204-0.26,0.331-0.536,0.366-0.82c0.001-0.01,0.001-0.017,0.002-0.025C56.205,54.913,54.766,54.283,54.743,52.849z"/><path d="M94.866,60.422c-1.776-6.109-5.057-6.318-5.763-6.483c-1.39-0.326-3.073-0.187-3.972-0.467   c-0.105,0.881-2.667,3.779-4.347,5.595l-0.728-2.805c0.548-0.322,0.666-1.035,0.666-1.626h-2.758c0,0.586,0.118,1.292,0.653,1.617   l-0.715,2.813c-1.68-1.816-4.241-4.714-4.348-5.596c-0.896,0.281-2.581,0.142-3.971,0.468c-0.447,0.104-1.93,0.229-3.408,1.862   c1.88,1.583,3.311,4.043,4.275,7.361c0.254,0.877,0.299,1.798,0.154,2.681c2.724,0.464,5.886,0.645,8.738,0.644   c6.182,0.002,13.83-0.845,15.284-3.596C95.021,62.152,95.106,61.251,94.866,60.422z"/><path d="M72.19,46.97c0.654,1.759,1.689,3.468,2.97,4.72c0.725,0.708,1.527,1.269,2.384,1.607c0.588,0.234,1.203,0.362,1.834,0.362   s1.246-0.129,1.834-0.362c0.887-0.352,1.716-0.939,2.461-1.683c1.249-1.247,2.258-2.93,2.899-4.66   c0.493-0.145,1.011-1.069,1.221-2.25c0.229-1.281,0.013-2.398-0.481-2.584c0.018-0.313,0.03-0.628,0.029-0.953   c-0.013-4.641-2.734-7.34-7.025-7.628c-3.742-0.251-6.561,1.236-7.845,3.707c-0.432,0.831-0.679,1.871-0.772,3.001   c-0.144,0.588-0.229,1.2-0.229,1.832h0.014c-0.001,0.005-0.001,0.01-0.002,0.015c-0.009,0-0.018,0.001-0.027,0.003   c-0.547,0.095-0.796,1.263-0.556,2.608C71.118,45.942,71.676,46.898,72.19,46.97z M72.314,43.511   c0.053-0.157,0.124-0.28,0.216-0.346c0.038-0.028,0.08-0.046,0.125-0.055c0.102-0.018,0.207,0.022,0.313,0.105l0,0   c0.001-0.008,0.001-0.016,0.003-0.025c0.035-0.349,0.501-3.396,3.434-3.124c0,0,2.572,0.945,4.912,0.109   c0.251-0.005,0.496-0.007,0.724,0.001c0.969,0.035,1.633,0.539,2.327,0.862c-0.026-0.319-0.271-0.646-0.259-0.862   c0.111,0.032,0.212,0.079,0.31,0.131c0.5,0.533,0.985,1.428,1.37,2.889c0,0.006,0,0.012,0.001,0.018   c0.001,0,0.002-0.001,0.003-0.002c0,0,0.001,0,0.001,0.001l0.005-0.006c0.102-0.08,0.206-0.116,0.305-0.099   c0.025,0.004,0.05,0.012,0.072,0.023c0.321,0.15,0.458,0.897,0.306,1.749c-0.116,0.653-0.372,1.191-0.644,1.421   c-0.108,0.092-0.22,0.135-0.325,0.116c-0.061-0.01-0.114-0.039-0.163-0.084c-0.593,1.845-1.724,3.685-3.15,4.801   c-0.852,0.666-1.809,1.076-2.819,1.076c-0.989,0-1.926-0.392-2.764-1.032c-1.453-1.112-2.605-2.976-3.205-4.845   c-0.05,0.045-0.104,0.075-0.164,0.084c-0.123,0.022-0.253-0.04-0.377-0.165c-0.252-0.252-0.481-0.761-0.592-1.373   c-0.008-0.041-0.011-0.079-0.017-0.119C72.267,44.335,72.284,43.921,72.314,43.511z"/><path d="M32.517,55.941c-1.34-1.333-2.634-1.445-3.041-1.54c-0.079-0.019-0.159-0.035-0.239-0.051   c-2.063-1.907-0.655-9.866-0.655-9.866c0-12.133-8.207-10.939-8.207-10.939c-0.101-0.005-0.199-0.01-0.297-0.013   c-0.098,0.003-0.197,0.008-0.298,0.013c0,0-8.206-1.194-8.206,10.939c0,0,1.408,7.958-0.655,9.866   c-0.081,0.016-0.161,0.032-0.239,0.051c-0.681,0.159-3.84,0.361-5.55,6.243c-0.231,0.8-0.149,1.668,0.227,2.379   c1.401,2.648,8.767,3.464,14.721,3.463c2.664,0.001,5.608-0.163,8.176-0.579c-0.159-0.904-0.116-1.849,0.145-2.747   C29.335,59.936,30.715,57.527,32.517,55.941z M25.651,53.952c-0.027,0.222-0.125,0.437-0.284,0.639   c-0.742,0.95-2.83,2.321-5.29,2.321c-2.461,0-4.548-1.371-5.291-2.321c-0.159-0.202-0.257-0.417-0.283-0.639   c0-0.001,0-0.001,0-0.001c0.037-0.012,0.122-0.042,0.234-0.094c0.046-0.021,0.097-0.045,0.15-0.072   c0.45-0.236,1.111-0.729,1.111-1.596h0c0.71,0.704,1.5,1.261,2.344,1.596c0.567,0.224,1.158,0.35,1.766,0.35s1.2-0.126,1.767-0.35   c0.835-0.331,1.619-0.882,2.323-1.576c0.005,0.002,0.009,0.004,0.014,0.006c0.018,1.116,1.137,1.605,1.44,1.718   C25.653,53.939,25.652,53.946,25.651,53.952z M26.947,45.681c-0.111,0.629-0.358,1.148-0.619,1.37   c-0.104,0.088-0.212,0.128-0.313,0.111c-0.058-0.01-0.11-0.039-0.157-0.083c-0.576,1.792-1.678,3.577-3.069,4.651   c-0.811,0.626-1.72,1.009-2.681,1.009c-0.966,0-1.881-0.388-2.696-1.021c-1.382-1.075-2.479-2.854-3.052-4.639   c-0.047,0.043-0.1,0.072-0.157,0.083c-0.119,0.021-0.244-0.039-0.364-0.159c-0.242-0.242-0.464-0.733-0.57-1.322   c-0.139-0.774-0.028-1.459,0.244-1.655c0.038-0.026,0.078-0.044,0.12-0.052c0.099-0.017,0.201,0.021,0.3,0.102   c0,0,0.001-0.008,0.003-0.024c0.034-0.337,0.483-4.109,3.306-3.848l8.64,4.447l0.701-0.676c0.024,0.004,0.048,0.012,0.07,0.022   C26.963,44.141,27.095,44.86,26.947,45.681z"/><path d="M61.509,55.659c-0.102-0.024-0.204-0.045-0.308-0.065c-2.653-2.452-0.842-12.685-0.842-12.685   c0-13.034-7.367-14.105-9.79-14.105c-0.477,0-0.762,0.042-0.762,0.042c-0.13-0.007-0.257-0.012-0.383-0.017   c-0.126,0.004-0.253,0.009-0.383,0.017c0,0-0.285-0.042-0.762-0.042c-2.422,0-9.789,1.071-9.789,14.105   c0,0,1.811,10.233-0.842,12.685c-0.104,0.021-0.207,0.041-0.307,0.065c-0.875,0.204-4.937,0.464-7.135,8.026   c-0.298,1.028-0.192,2.145,0.292,3.06c1.799,3.402,11.255,4.452,18.906,4.452c0.007,0,0.013,0,0.02,0c0.006,0,0.013,0,0.02,0   c7.652,0,17.107-1.05,18.907-4.452c0.484-0.915,0.588-2.031,0.291-3.06C66.445,56.123,62.384,55.863,61.509,55.659z M56.593,55.082   c-0.035,0.284-0.162,0.561-0.366,0.82c-0.954,1.221-3.639,2.984-6.801,2.984c-3.164,0-5.847-1.764-6.802-2.984   c-0.204-0.26-0.33-0.536-0.364-0.821c0-0.001,0-0.001,0-0.001c0.048-0.016,0.157-0.055,0.301-0.12   c0.059-0.027,0.125-0.059,0.193-0.094c0.578-0.303,1.428-0.938,1.428-2.051c0,0,0,0,0.001,0c0.912,0.904,1.928,1.621,3.013,2.051   c0.729,0.288,1.489,0.449,2.271,0.449s1.542-0.161,2.271-0.449c1.074-0.427,2.081-1.133,2.987-2.026   c0.006,0.003,0.012,0.006,0.019,0.009c0.022,1.435,1.462,2.064,1.852,2.208C56.594,55.065,56.594,55.072,56.593,55.082z    M58.258,44.447c-0.143,0.809-0.46,1.476-0.795,1.761c-0.114,0.096-0.23,0.148-0.342,0.148c-0.021,0-0.041-0.002-0.061-0.005   c-0.075-0.013-0.142-0.049-0.202-0.105c-0.741,2.304-2.158,4.599-3.945,5.979c-1.043,0.805-2.212,1.298-3.447,1.298   c-1.243,0-2.419-0.499-3.467-1.313c-1.778-1.381-3.187-3.668-3.924-5.963c-0.061,0.056-0.128,0.092-0.202,0.105   c-0.021,0.003-0.041,0.005-0.062,0.005c-0.134,0-0.273-0.076-0.407-0.209c-0.312-0.312-0.597-0.943-0.732-1.7   c-0.179-0.996-0.037-1.875,0.314-2.128c0.047-0.034,0.099-0.057,0.154-0.066c0.02-0.003,0.04-0.005,0.06-0.005   c0.108,0,0.218,0.048,0.327,0.136c0,0,0.001-0.01,0.004-0.031c0.043-0.418,0.583-4.964,3.897-4.964   c0.115,0,0.233,0.005,0.354,0.017l11.107,5.717l0.9-0.869c0.032,0.005,0.063,0.016,0.091,0.029   C58.278,42.467,58.448,43.392,58.258,44.447z"/></g><text x="0" y="115" fill="#000000" font-size="5px" font-weight="bold" font-family="'Helvetica Neue', Helvetica, Arial-Unicode, Arial, Sans-serif">Created by Wilson Joseph</text><text x="0" y="120" fill="#000000" font-size="5px" font-weight="bold" font-family="'Helvetica Neue', Helvetica, Arial-Unicode, Arial, Sans-serif">from the Noun Project</text></svg>