<svg xmlns="http://www.w3.org/2000/svg" xmlns:xlink="http://www.w3.org/1999/xlink" version="1.1" x="0px" y="0px" viewBox="0 0 100 125" enable-background="new 0 0 100 100" xml:space="preserve"><g><path d="M29.036,15.417l1.407,0.608l-0.119,0.944c-0.539,0.093-0.949,0.561-0.949,1.125c0,0.509,0.331,0.94,0.79,1.085   l-0.854,11.958c-0.035,0.498,0.064,1.295,0.223,1.769l0.692,2.079c0.159,0.475,0.416,0.475,0.575,0l0.693-2.079   c0.158-0.473,0.258-1.271,0.222-1.769L30.866,19.18c0.456-0.146,0.791-0.576,0.791-1.085c0-0.564-0.411-1.032-0.951-1.125   l-0.109-0.877l3.246,1.405l1.59,0.688v6.137l0.004,0.002c-0.166,0.919-0.286,1.857-0.358,2.713   c-0.276,1.125-0.437,2.296-0.437,3.507h0.029c0,0.011-0.002,0.021-0.004,0.029c-0.019,0.001-0.033,0.003-0.053,0.006   c-1.045,0.182-1.524,2.418-1.064,4.992c0.421,2.366,1.485,4.194,2.473,4.333c1.251,3.368,3.234,6.644,5.687,9.033   c1.383,1.358,2.922,2.431,4.56,3.083c1.126,0.444,2.303,0.694,3.515,0.694c1.206,0,2.383-0.247,3.51-0.694   c1.695-0.676,3.285-1.8,4.708-3.223c2.392-2.386,4.329-5.611,5.552-8.92c0.947-0.279,1.937-2.046,2.34-4.307   c0.436-2.452,0.024-4.59-0.923-4.944c0.035-0.601,0.057-1.206,0.054-1.825c-0.005-1.881-0.255-3.617-0.704-5.207v-5.41l1.591-0.688   l4.803-2.081c1.258-0.543,1.258-1.433,0-1.978L52.16,5.409c-1.256-0.545-3.311-0.545-4.568,0l-18.556,8.031   C27.781,13.984,27.781,14.874,29.036,15.417z M36.256,33.283c0.101-0.303,0.237-0.538,0.414-0.663   c0.076-0.052,0.157-0.091,0.24-0.104c0.195-0.033,0.398,0.042,0.599,0.202c0,0,0,0,0.001,0c0-0.015,0.001-0.031,0.003-0.045   c0.039-0.375,0.336-2.387,1.59-3.981c0.578-0.735,1.367-1.375,2.42-1.733l6.068,2.628c1.257,0.544,3.312,0.544,4.568,0l4.957-2.145   l1.249-0.542h0.473h0.002c0.212,0.06,0.404,0.152,0.59,0.251h0.001c0.054,0.058,0.107,0.126,0.161,0.189   c0.424,0.487,0.839,1.107,1.232,1.909c0.443,0.906,0.86,2.034,1.228,3.432c0,0.013,0,0.023,0,0.032c0,0.001,0,0.001,0,0.001   c0.005,0,0.006-0.001,0.01-0.001c0-0.001,0,0,0.002-0.001c0,0.003,0,0.003,0,0.003l0.012-0.012   c0.096-0.074,0.194-0.132,0.291-0.164c0.011-0.004,0.021-0.002,0.032-0.005c0.033-0.005,0.066-0.008,0.099-0.01   c0.008,0,0.017,0,0.024-0.001c0.044-0.002,0.094-0.018,0.133-0.011h0.003c0.048,0.007,0.098,0.026,0.14,0.042   c0.058,0.027,0.111,0.064,0.162,0.11c0.282,0.258,0.464,0.806,0.519,1.502c0.004,0.055,0.01,0.107,0.013,0.165   c0.003,0.059,0.002,0.122,0.003,0.182c0.001,0.073,0.004,0.143,0.003,0.218v0.001c-0.007,0.367-0.044,0.76-0.119,1.169   c-0.017,0.11-0.045,0.202-0.072,0.307c-0.241,1.106-0.685,2.013-1.155,2.416c-0.106,0.092-0.221,0.156-0.328,0.192   c-0.102,0.035-0.201,0.048-0.3,0.03c-0.109-0.017-0.215-0.074-0.307-0.162c-1.137,3.534-3.302,7.053-6.033,9.192   c-0.405,0.314-0.82,0.6-1.245,0.851c-1.297,0.762-2.695,1.21-4.15,1.21c-1.893,0-3.689-0.751-5.291-1.976   c-2.781-2.13-4.989-5.695-6.139-9.277c-0.094,0.087-0.199,0.145-0.311,0.162c-0.234,0.042-0.484-0.077-0.723-0.313   c-0.182-0.181-0.357-0.432-0.516-0.737c-0.265-0.506-0.485-1.161-0.615-1.894c-0.014-0.077-0.024-0.15-0.033-0.228   C36.164,34.863,36.203,34.067,36.256,33.283z"/><path d="M79.157,68.954c0.028-0.114,0.063-0.226,0.087-0.341c0.179-0.909,0.165-1.867-0.1-2.785   c-1.036-3.584-2.343-6.048-3.688-7.783c-2.616-3.378-5.367-3.923-6.538-4.146c-0.145-0.025-0.265-0.049-0.361-0.072   c-1.308-0.305-2.808-0.394-4.131-0.471c-1.064-0.063-2.081-0.118-2.908-0.284c-0.961,2.546-5.689,4.396-11.512,4.396   c-5.826,0-10.549-1.851-11.511-4.396c-0.832,0.166-1.848,0.225-2.912,0.287c-1.323,0.074-2.823,0.163-4.128,0.468   c-0.098,0.021-0.22,0.045-0.362,0.072c-1.105,0.215-3.62,0.696-6.101,3.59c-1.495,1.746-2.978,4.364-4.131,8.335   c-0.288,0.989-0.289,2.032-0.056,3.005c0.01,0.043,0.026,0.084,0.037,0.126c-1.652,1.155-2.736,3.064-2.736,5.233v4.111   c0,3.252,2.43,5.931,5.572,6.335c0.117,3.344,2.831,6.039,6.186,6.112l18.869,3.986L50,95l1.268-0.268l18.868-3.986   c3.355-0.073,6.069-2.769,6.187-6.112c3.143-0.404,5.572-3.083,5.572-6.335v-4.111C81.895,72.019,80.81,70.108,79.157,68.954z    M48.732,92.142l-18.596-3.929h-0.132c-2.022,0-3.676-1.588-3.791-3.582c3.131-0.415,5.55-3.088,5.55-6.332v-4.111   c0-3.248-2.424-5.925-5.561-6.333v-3.158c0-2.056,1.639-3.735,3.679-3.8l18.852,3.982V92.142z M73.798,67.854   c-3.136,0.408-5.561,3.085-5.561,6.333v4.111c0,3.244,2.419,5.917,5.55,6.332c-0.115,1.994-1.769,3.582-3.791,3.582h-0.133   l-18.596,3.929V64.879l18.853-3.982c2.039,0.064,3.678,1.744,3.678,3.8V67.854z"/></g><text x="0" y="115" fill="#000000" font-size="5px" font-weight="bold" font-family="'Helvetica Neue', Helvetica, Arial-Unicode, Arial, Sans-serif">Created by Wilson Joseph</text><text x="0" y="120" fill="#000000" font-size="5px" font-weight="bold" font-family="'Helvetica Neue', Helvetica, Arial-Unicode, Arial, Sans-serif">from the Noun Project</text></svg>