<svg xmlns="http://www.w3.org/2000/svg" xmlns:xlink="http://www.w3.org/1999/xlink" xml:space="preserve" version="1.1" style="shape-rendering:geometricPrecision;text-rendering:geometricPrecision;image-rendering:optimizeQuality;" viewBox="0 0 846.66 1058.325" x="0px" y="0px" fill-rule="evenodd" clip-rule="evenodd"><defs><style type="text/css">
   
    .fil0 {fill:black;fill-rule:nonzero}
   
  </style></defs><g><path class="fil0" d="M784.99 729.23l-450.89 0 0 -51.78 450.89 0 0 51.78zm-153.65 -411.34l-137.65 137.65c2.88,7.77 1.95,16.93 -5.4,25.12l-84.25 93.36c-11.37,11.02 -28.14,12.04 -38.88,-0.46l-51.65 -60.64 0 218.14 -171.98 0 0 -241.5c-18.97,12.37 -28.07,33.64 -28.07,67.2l0 120.55c0,34.06 -51.79,34.06 -51.79,0l0 -121.01c0,-59.06 22.01,-103.11 79.17,-123.01l63.74 0c9.72,0 108.46,-0.49 108.93,0l71.83 84.27 64.49 -71.42c7.42,-8.28 16.56,-10.13 24.66,-8.02l138.55 -138.53 18.3 18.3zm-406.44 -49.24c39.41,0 71.35,31.91 71.35,71.35 0,39.41 -31.94,71.35 -71.35,71.35 -39.41,0 -71.35,-31.94 -71.35,-71.35 0,-39.44 31.94,-71.35 71.35,-71.35zm-23.24 -17.61l0 -135.44 583.33 0 0 51.77 -531.54 0 0 85.22c-8.97,-2.99 -18.55,-4.54 -28.55,-4.54 -8.03,0 -15.82,1.02 -23.24,2.99z"/></g><text x="0" y="861.66" fill="#000000" font-size="5px" font-weight="bold" font-family="'Helvetica Neue', Helvetica, Arial-Unicode, Arial, Sans-serif">Created by Susannanova</text><text x="0" y="866.66" fill="#000000" font-size="5px" font-weight="bold" font-family="'Helvetica Neue', Helvetica, Arial-Unicode, Arial, Sans-serif">from the Noun Project</text></svg>